<svg xmlns="http://www.w3.org/2000/svg" xmlns:xlink="http://www.w3.org/1999/xlink" width="100px" height="31px" viewBox="0 0 100 31"><title>Group</title><defs><radialGradient cx="100%" cy="28.5025478%" fx="100%" fy="28.5025478%" r="71.7561541%" gradientTransform="translate(1.000000,0.285025),scale(1.000000,0.900932),rotate(147.077981),scale(1.000000,0.769761),translate(-1.000000,-0.285025)" id="radialGradient-1"><stop stop-color="#324A6D" offset="0%"></stop><stop stop-color="#0D1B28" offset="100%"></stop></radialGradient></defs><g id="Site-Logo" stroke="none" stroke-width="1" fill="none" fill-rule="evenodd"><g id="Artboard" transform="translate(-61.000000, -68.000000)" fill-rule="nonzero"><g id="Group" transform="translate(61.000000, 68.000000)"><g id="Panther"><path d="M18.1753123,30.5662143 C17.1149665,30.5662143 15.9641301,29.8991322 14.5060634,29.0534324 C12.6130579,27.9562099 10.2566529,26.5899673 7.21864909,26.2334611 C3.48955965,25.7960302 1.41849197,24.9547047 0.701864601,23.5891912 C0.26400674,22.7602596 0.355227128,21.7935373 0.971876949,20.6350744 L0.989391263,20.6015381 L7.44779471,12.3399262 C8.28994133,10.5785377 9.61738041,9.0679429 11.3950833,7.84532349 C11.3848666,7.72502999 11.3731904,7.58286494 11.3593249,7.42320265 C11.0068494,3.3164554 11.0360399,0.729051527 12.2649609,0.519084688 C12.5869819,0.463492252 12.9131315,0.435201485 13.2399244,0.43451471 C15.8736395,0.43451471 17.421467,2.30234472 17.9833846,3.14731544 L25.1817678,3.14731544 C26.012968,2.46346511 28.2336371,0.722490064 29.2735495,0.722490064 C29.4182314,0.719780066 29.5611933,0.754167908 29.6887847,0.822370123 C31.7656905,1.980833 30.8140794,5.50871334 30.316381,6.95515157 L33.7922427,9.86625432 L33.2602454,11.1982315 L37.0221741,17.8114579 L35.7742792,19.1179182 C36.6602116,21.7425037 35.0875722,23.0453188 34.4745712,23.4375485 C34.1826659,26.0249524 32.6063776,26.5768444 31.3139672,26.5768444 L31.3139672,26.5768444 C29.2326828,26.5768444 26.7996526,25.1457162 26.2370053,24.7965006 L22.6932757,24.887632 C22.3729097,26.1693046 21.5475476,27.6303238 20.0610201,29.5586651 C19.5385098,30.2366831 18.9211302,30.5662143 18.173123,30.5662143" id="Path" fill="#231F20"></path><path d="M13.2435733,0.868300369 C15.9320205,0.868300369 17.4156289,3.0292091 17.7498604,3.58037205 L25.3393967,3.58037205 C25.5378922,3.41487735 28.2745038,1.15627572 29.2757388,1.15627572 C29.346279,1.15366286 29.4163304,1.16896382 29.4793427,1.20074787 C31.4650281,2.30817714 30.0886949,6.33545777 29.8077361,7.09367136 L33.2726513,9.99675454 L32.7822505,11.2324969 L36.4872578,17.7473013 L35.2765808,19.0143929 C36.4624458,22.0764093 34.0659038,23.1772771 34.0659038,23.1772771 C33.8856523,25.4468145 32.7027063,26.1452459 31.3154267,26.1452459 C29.0976766,26.1452459 26.3588757,24.3612568 26.3588757,24.3612568 L22.5049968,24.4604078 C22.5049968,24.4604078 22.445886,24.4604078 22.3444489,24.4560335 C22.1298985,25.6429294 21.4037843,27.109781 19.7173017,29.2954775 C19.2568212,29.8925707 18.7489061,30.1346158 18.173123,30.1346158 C15.9247229,30.1346158 12.6568437,26.4368665 7.26681346,25.8040498 C0.927361399,25.0589591 0.12024341,23.1575927 1.35573234,20.8399379 L7.82435247,12.5703064 C8.80807313,10.4881353 10.3785233,9.04169704 11.8504555,8.06549705 C11.7825875,6.92234425 11.0936912,1.16137908 12.3437754,0.947766986 C12.6416691,0.89617819 12.9434263,0.870080666 13.2457625,0.869758472 M13.2457625,0.00218715458 L13.2457625,0.00218715458 C12.8944975,0.00288779874 12.5439258,0.0333743808 12.1978227,0.0933185955 C10.6266428,0.361609558 10.5412605,2.89068931 10.9331433,7.46111333 C10.9382516,7.52235366 10.94336,7.57994873 10.9477385,7.6346276 C9.2240381,8.86453752 7.92578954,10.3685708 7.0799941,12.111004 L0.670484788,20.3048141 L0.623050186,20.3638673 L0.588021557,20.4316691 C-0.0913878897,21.7082383 -0.182608277,22.8375391 0.317279447,23.7904094 C1.1054236,25.2944427 3.28230693,26.2072153 7.16756568,26.6628725 C10.1158086,27.0091719 12.4291576,28.3513558 14.2878643,29.428894 C15.8013929,30.3037558 16.9974746,31 18.1745825,31 C19.0539471,31 19.8041435,30.604125 20.4061981,29.8233108 C21.8102623,28.000682 22.6421922,26.5761153 23.0275072,25.312669 L26.1217027,25.2324734 C26.8718992,25.6859434 29.2421697,27.01063 31.3154267,27.01063 C32.4932643,27.01063 34.465814,26.5673667 34.8803194,23.7036523 C35.8479853,23.0365702 36.9404407,21.5522213 36.2668693,19.2323793 L37.1148541,18.3443945 L37.5607393,17.8778016 L37.2418328,17.31789 L33.7426188,11.1646951 L34.0841479,10.3182663 L34.3176721,9.73502505 L33.8360284,9.33185955 L30.8286747,6.81152842 C31.3672399,5.13106465 32.1364102,1.68556713 29.9077137,0.443263329 C29.7158517,0.338542893 29.5001867,0.285055887 29.2815769,0.287975353 C28.1942299,0.287975353 26.2457624,1.72420686 25.0336259,2.71280073 L18.2147195,2.71280073 C17.5192553,1.74462031 15.8955324,0.000729051527 13.2435733,0" id="Shape" fill="#FFFFFF"></path><path d="M16.0210516,6.21370617 C15.8928144,6.21417933 15.7659875,6.24046221 15.6481427,6.29098563 C15.6481427,6.29098563 10.1267551,7.68857741 7.82216318,12.5688483 L1.35427281,20.8377508 C0.120973173,23.1561346 0.928091162,25.0582301 7.26900275,25.8033207 C14.0368257,26.5979869 17.4594147,32.2255356 19.7187613,29.2940194 C23.8251382,23.9668399 22.2400928,22.9097152 21.4395426,19.7704193 C20.6754807,16.7776628 18.5540593,6.21006091 16.0210516,6.21006091" id="Path" fill="url(#radialGradient-1)"></path><path d="M14.550579,3.57745585 L25.6188959,3.57745585 L33.2763001,9.99310929 L32.7815208,11.2324969 L36.4872578,17.7480304 L35.275851,19.0151219 C36.4624458,22.0771384 34.0666336,23.1772771 34.0666336,23.1772771 C33.5966661,29.076033 26.3596055,24.3619858 26.3596055,24.3619858 L22.5049968,24.4611369 C22.5049968,24.4611369 11.9818129,24.3619858 14.1557771,16.9577385 C16.3297414,9.55349122 7.78275597,10.8847393 14.550579,3.57745585" id="Path" fill="#0A1A28"></path><path d="M11.8548341,8.20328779 C11.8548341,7.51287599 11.029472,1.1701277 12.3415861,0.946308883 C16.0334576,0.31495026 17.8257558,3.71014322 17.8257558,3.71014322 L11.8548341,8.20328779 Z" id="Path" fill="#0A1A28"></path><path d="M25.3211526,3.59714024 C25.3211526,3.59714024 28.7036046,0.76842031 29.4808023,1.20147692 C31.6759297,2.42482538 29.7624908,7.21688107 29.7624908,7.21688107 L25.3211526,3.59714024 Z" id="Path" fill="#0A1A28"></path><path d="M23.0982942,11.3294607 C23.0982942,11.3294607 25.6933318,11.0028457 27.0565292,11.6108746 C27.0565292,11.6108746 27.0506911,15.9691447 23.0982942,11.3294607" id="Path" fill="#CCC26A"></path><path d="M36.4577737,17.8048909 C36.1905608,18.0511702 35.9665092,18.2944566 35.7649864,18.5079217 C35.0342751,19.2819352 34.687579,19.8955256 34.5488208,20.1694486 C34.4814218,20.3025013 34.4423136,20.2349245 34.4081269,20.1694486 C33.4496514,18.3337339 31.9575206,17.7591661 31.5869147,17.6092666 C31.5323505,17.587197 31.5538435,17.5545303 31.5869147,17.5439274 C33.2109681,17.0232422 35.9452147,17.5645032 36.4577737,17.7049553 C36.5138242,17.7203144 36.4831424,17.7815096 36.4577737,17.8048909 Z" id="Path" fill="#324A6D"></path><path d="M34.2975307,20.8835451 C33.9986454,21.2001172 32.4451987,22.7275022 29.2753264,23.9490663 C29.2599337,23.9549981 29.2500397,23.9606637 29.2893232,23.9493582 C29.7877682,23.8059097 33.2288621,22.836669 34.0401503,23.1802677 C34.0519425,23.185262 34.0640733,23.18713 34.0691133,23.1592569 C34.0906284,23.0402703 34.1792696,22.2816997 34.3350368,20.8835451 C34.3345257,20.8576028 34.3220236,20.8576028 34.2975307,20.8835451 Z" id="Path" fill="#324A6D"></path><path d="M25.6510055,12.8305778 C25.1759297,12.8305778 24.7884246,12.3566943 24.7884246,11.7727241 C24.7884246,11.5817491 24.8061084,11.3808957 24.9076514,11.2418495 C25.2888595,11.2521733 25.5741651,11.2675887 25.7635682,11.2880958 C25.9211104,11.3051533 26.1542693,11.3480217 26.4630448,11.416701 C26.4953034,11.5279578 26.5128557,11.6478121 26.5128557,11.7727241 C26.5128557,12.3559653 26.1260813,12.8305778 25.6510055,12.8305778 Z" id="Path-Copy" fill="#25234D"></path><path d="M25.778714,11.3002987 C25.7743355,11.5489052 25.6261936,11.6808636 25.4313468,11.6808636 C25.2365001,11.6808636 25.0774117,11.4796454 25.0774117,11.2317678 L25.778714,11.3002987 Z" id="Path" fill="#FFFFFF"></path></g><g id="AMPL" transform="translate(41.892613, 11.613062)" fill="#0A2440"><polygon id="Path" points="48.3249126 0 48.3249126 11.0772089 58.1073869 11.0772089 58.1073869 8.37680205 52.9932071 8.37680205 52.9932071 0"></polygon><path d="M43.197597,0 L35.2876948,0 L35.2876948,11.0772089 L39.9581786,11.0772089 L39.9581786,7.51797935 L43.6128322,7.51797935 C45.9480741,7.51797935 47.7440211,6.55198608 47.7440211,3.85157922 C47.7440211,0.967451377 45.8707192,0 43.1990565,0 M40.8638146,5.18136921 L39.9151226,5.18136921 L39.9151226,2.32786153 L41.3279439,2.32786153 C42.6634104,2.32786153 43.1246207,2.80320312 43.1246207,3.72326615 C43.1246207,4.81319818 42.5254852,5.18136921 40.8667337,5.18136921" id="Shape"></path><path d="M27.3340067,0 L25.0921745,7.42611886 L25.0607947,7.42611886 L22.7423373,0 L15.6636352,0 L15.6636352,8.21641071 L11.4726057,0 L5.65055569,0 L-7.10542736e-15,11.077938 L4.57561464,11.077938 L5.43527558,9.2363538 L11.1653754,9.2363538 L11.9790613,11.077938 L19.6240596,11.077938 L19.6240596,2.74706616 L19.6707644,2.74706616 L22.5270572,11.077938 L27.0421015,11.077938 L30.0830243,2.74706616 L30.1129446,2.74706616 L30.1129446,11.077938 L34.4448184,11.077938 L34.4448184,0 L27.3340067,0 Z M6.51605473,6.72622939 L8.31273148,2.8622563 L10.0327831,6.72622939 L6.51605473,6.72622939 Z" id="Shape"></path></g></g></g></g></svg>